<?xml version="1.0" encoding="UTF-8"?>
<svg xmlns="http://www.w3.org/2000/svg" viewBox="0 0 400 220" width="400" height="220">
<defs>
<style>
@keyframes roll  { from{transform:translateX(-380px)} to{transform:translateX(400px)} }
@keyframes spin  { from{transform:rotate(0deg)} to{transform:rotate(360deg)} }
@keyframes bob   { 0%,100%{transform:translateY(0)} 50%{transform:translateY(-5px)} }
@keyframes crkA  { from{transform:rotate(0deg)}   to{transform:rotate(360deg)} }
@keyframes crkB  { from{transform:rotate(180deg)} to{transform:rotate(540deg)} }
@keyframes blink { 0%,90%,100%{transform:scaleY(1)} 93%,97%{transform:scaleY(0.05)} }
</style>
</defs>
<rect width="400" height="220" fill="#0d1117" rx="10"/>
<line x1="0" y1="182" x2="400" y2="182" stroke="#1a2a1a" stroke-width="1"/>
<clipPath id="cl"><rect width="400" height="220" rx="10"/></clipPath>
<g clip-path="url(#cl)">
<g style="animation:roll 4.5s linear infinite;">

  <g transform="translate(108,158)">
    <g style="animation:spin 0.42s linear infinite;">
      <circle r="24" fill="none" stroke="#d0cce8" stroke-width="2.2"/>
      <line x1="0" y1="-24" x2="0" y2="24"    stroke="#d0cce8" stroke-width="1.6"/>
      <line x1="-24" y1="0" x2="24" y2="0"    stroke="#d0cce8" stroke-width="1.6"/>
      <line x1="-17" y1="-17" x2="17" y2="17" stroke="#d0cce8" stroke-width="1.1" opacity="0.55"/>
      <line x1="17"  y1="-17" x2="-17" y2="17" stroke="#d0cce8" stroke-width="1.1" opacity="0.55"/>
      <circle r="4" fill="#a8a0d0"/>
    </g>
  </g>

  <g transform="translate(198,158)">
    <g style="animation:spin 0.42s linear infinite;">
      <circle r="24" fill="none" stroke="#d0cce8" stroke-width="2.2"/>
      <line x1="0" y1="-24" x2="0" y2="24"    stroke="#d0cce8" stroke-width="1.6"/>
      <line x1="-24" y1="0" x2="24" y2="0"    stroke="#d0cce8" stroke-width="1.6"/>
      <line x1="-17" y1="-17" x2="17" y2="17" stroke="#d0cce8" stroke-width="1.1" opacity="0.55"/>
      <line x1="17"  y1="-17" x2="-17" y2="17" stroke="#d0cce8" stroke-width="1.1" opacity="0.55"/>
      <circle r="4" fill="#a8a0d0"/>
    </g>
  </g>

  <line x1="108" y1="158" x2="148" y2="130" stroke="#5DCAA5" stroke-width="2.5" stroke-linecap="round"/>
  <line x1="148" y1="130" x2="198" y2="158" stroke="#5DCAA5" stroke-width="2.5" stroke-linecap="round"/>
  <line x1="148" y1="130" x2="150" y2="108" stroke="#5DCAA5" stroke-width="2.5" stroke-linecap="round"/>
  <line x1="183" y1="120" x2="198" y2="158" stroke="#5DCAA5" stroke-width="2.5" stroke-linecap="round"/>
  <line x1="150" y1="108" x2="183" y2="120" stroke="#5DCAA5" stroke-width="2.5" stroke-linecap="round"/>
  <line x1="183" y1="120" x2="182" y2="105" stroke="#b0a8d8" stroke-width="2.5" stroke-linecap="round"/>
  <line x1="175" y1="102" x2="189" y2="102" stroke="#b0a8d8" stroke-width="3" stroke-linecap="round"/>
  <rect x="143" y="103" width="16" height="4" rx="2" fill="#b0a8d8"/>

  <g transform="translate(148,130)">
    <g style="animation:crkA 0.42s linear infinite;">
      <line x1="0" y1="-9" x2="0" y2="9" stroke="#f0a020" stroke-width="2.5" stroke-linecap="round"/>
      <rect x="-6" y="-11" width="12" height="3.5" rx="1.5" fill="#c07010"/>
      <rect x="-6" y="7.5" width="12" height="3.5" rx="1.5" fill="#c07010"/>
    </g>
    <g style="animation:crkB 0.42s linear infinite; opacity:0.35;">
      <line x1="0" y1="-9" x2="0" y2="9" stroke="#f0a020" stroke-width="2" stroke-linecap="round"/>
    </g>
  </g>

  <g style="animation:bob 0.42s ease-in-out infinite; transform-origin:153px 108px;">
    <ellipse cx="148" cy="98" rx="30" ry="19" fill="#ddd8c8"/>
    <path d="M 122 95 Q 132 84 148 91 Q 140 100 122 99 Z" fill="#bab0a0"/>
    <path d="M 162 84 Q 172 73 177 62" stroke="#ddd8c8" stroke-width="11" fill="none" stroke-linecap="round"/>
    <ellipse cx="178" cy="59" rx="12" ry="11" fill="#ddd8c8"/>
    <circle cx="178" cy="59" r="5.5" fill="none" stroke="#f0a020" stroke-width="1.2"/>
    <g style="animation:blink 3.5s ease-in-out infinite; transform-box:fill-box; transform-origin:center;">
      <ellipse cx="181" cy="57" rx="3.5" ry="3.5" fill="#1a1a22"/>
      <circle  cx="182.5" cy="55.5" r="1.2" fill="white"/>
    </g>
    <path d="M 187 57 L 222 55 L 226 58 Q 224 62 220 62 L 187 61 Z" fill="#f0a020"/>
    <path d="M 222 55 Q 228 56 226 62 Q 224 64 220 62 Q 224 60 222 55 Z" fill="#c87808"/>
    <path fill="#f07020">
      <animate attributeName="d" dur="0.42s" repeatCount="indefinite"
        keyTimes="0;0.5;1" calcMode="spline" keySplines="0.45 0 0.55 1;0.45 0 0.55 1"
        values="
M 187 63 Q 198 63 210 62 Q 218 63 216 68 Q 210 73 200 73 Q 190 73 187 68 Z;
M 187 67 Q 198 67 212 67 Q 220 69 218 77 Q 212 84 200 85 Q 188 84 185 76 Z;
M 187 63 Q 198 63 210 62 Q 218 63 216 68 Q 210 73 200 73 Q 190 73 187 68 Z"/>
    </path>
    <path fill="#c07010">
      <animate attributeName="d" dur="0.42s" repeatCount="indefinite"
        keyTimes="0;0.5;1" calcMode="spline" keySplines="0.45 0 0.55 1;0.45 0 0.55 1"
        values="
M 187 61 Q 204 60 220 62 Q 218 65 204 66 Q 190 66 187 63 Z;
M 187 65 Q 204 65 218 67 Q 216 70 202 71 Q 188 70 187 67 Z;
M 187 61 Q 204 60 220 62 Q 218 65 204 66 Q 190 66 187 63 Z"/>
    </path>
    <path d="M 174 50 Q 175 42 171 37 Q 176 43 180 39 Q 178 45 183 43 Q 178 50 176 50 Z" fill="#f0a020"/>
    <line x1="142" y1="114" x2="146" y2="130" stroke="#f0a020" stroke-width="3" stroke-linecap="round"/>
    <line x1="154" y1="116" x2="151" y2="130" stroke="#f0a020" stroke-width="3" stroke-linecap="round"/>
  </g>

</g>
</g>
<text x="200" y="210" text-anchor="middle" font-family="'Segoe UI',sans-serif" font-size="9" fill="#2a3a2a">sandraschi · Vienna · 2026</text>
</svg>
